<?xml version="1.0" encoding="UTF-8" standalone="no"?><!DOCTYPE svg PUBLIC "-//W3C//DTD SVG 1.1//EN" "http://www.w3.org/Graphics/SVG/1.1/DTD/svg11.dtd"><svg width="100%" height="100%" viewBox="0 0 267 324" version="1.1" xmlns="http://www.w3.org/2000/svg" xmlns:xlink="http://www.w3.org/1999/xlink" xml:space="preserve" xmlns:serif="http://www.serif.com/" style="fill-rule:evenodd;clip-rule:evenodd;stroke-linejoin:round;stroke-miterlimit:2;"><g id="Background"><path d="M116.378,47.26c20.821,-21.057 43.626,-42.738 47.475,-46.397c1.292,-1.228 5.784,-0.784 6.603,-0.784c95.316,-0.002 96.549,-0.07 95.969,0.643c-0.344,0.424 -36.899,35.982 -40.111,39.107c-161.254,156.862 -160.481,157.644 -174.928,170.832c-0.658,0.6 -2.712,-1.434 -2.901,-1.621c-44.194,-43.756 -44.984,-42.906 -48.379,-47.108c-0.374,-0.464 -0.34,-0.851 10.473,-11.415c97.295,-95.05 97.282,-95.051 105.799,-103.258Z" style="fill:#fcfdfd;fill-opacity:1;"/><path d="M178.173,235.313c-0.758,1.401 0.737,2.066 7.841,9.083c5.51,5.442 13.844,13.591 15.05,14.77c15.852,15.5 15.824,15.447 28.533,27.939c36.462,35.84 36.715,35.906 36.523,36.137c-0.257,0.308 -100.795,0.147 -101.035,0.083c-1.514,-0.405 -57.723,-55.751 -62.695,-60.647c-24.813,-24.432 -27.992,-26.51 -27.569,-27.517c0.5,-1.192 59.759,-58.512 64.987,-63.569c23.144,-22.386 22.968,-22.773 23.996,-22.856c0.278,-0.022 102.097,-0.012 102.103,-0.01c1.024,0.342 -2.53,3.395 -3.144,3.999c-28.196,27.529 -56.393,55.058 -84.589,82.588Z" style="fill:#f7f7f7;fill-opacity:1;"/><path d="M239.044,13.484c-0.079,0.104 -0.086,0.099 -165.879,162.51c-14.021,13.734 -14.044,14.038 -15.642,14.061c-1.806,0.026 -20.931,0.306 -22.571,-0.094c-1.094,-0.267 -0.86,-0.712 -0.533,-14.07c0.04,-1.644 1.012,-1.937 30.371,-30.803c7.254,-7.132 8.259,-7.151 7.621,-11.703c-0.545,-3.884 -0.046,-3.923 -2.921,-31.401c-0.132,-1.26 26.866,-35.639 73.109,-60.487c50.826,-27.311 96.729,-29.06 96.678,-28.343c-0.024,0.334 -0.139,0.199 -0.231,0.331Z" style="fill:#063cdf;"/></g></svg>