<svg version="1.0" xmlns="http://www.w3.org/2000/svg" viewBox="0 0 1027.000000 425.000000" preserveAspectRatio="xMidYMid meet"> <g transform="translate(0.000000,425.000000) scale(0.100000,-0.100000)" fill="#2563eb" stroke="none"> <path d="M8425 3769 c-390 -21 -1277 -69 -1970 -106 l-1260 -68 -2447 -3 -2448 -2 0 -1440 0 -1440 4720 0 4720 0 0 1440 0 1440 -180 0 c-179 0 -181 0 -189 23 -24 62 -56 119 -87 156 -43 50 60 50 -859 0z m836 -20 c78 -83 108 -228 75 -356 -17 -70 -78 -197 -125 -260 l-31 -43 -98 0 c-53 0 -290 -9 -527 -20 -443 -20 -520 -23 -1470 -65 -308 -13 -645 -29 -750 -35 -104 -5 -289 -15 -410 -20 -121 -6 -294 -15 -385 -20 -91 -5 -246 -14 -345 -20 -99 -5 -232 -15 -295 -21 -63 -7 -160 -9 -215 -6 -292 18 -408 112 -515 412 -50 143 -41 204 34 220 11 2 244 16 516 29 657 34 2805 147 3700 195 903 49 806 48 841 10z m-5151 -273 c0 -8 -3 -21 -6 -30 -5 -13 -10 -12 -36 7 -24 18 -41 22 -91 20 -34 -2 -345 -14 -692 -28 -1943 -77 -2399 -95 -2482 -95 -95 0 -127 -6 -117 -21 3 -5 -18 -9 -45 -9 l-51 0 0 -1225 0 -1225 2580 0 2580 0 0 1019 0 1019 83 6 c165 13 1461 73 2712 126 264 11 522 23 572 26 l93 6 44 72 c65 103 104 195 118 276 l12 70 128 0 128 0 0 -1340 0 -1340 -4620 0 -4620 0 0 1340 0 1340 1855 0 c1595 0 1855 -2 1855 -14z m-41 -41 c20 -17 37 -48 52 -93 12 -37 41 -113 65 -169 48 -113 48 -144 -2 -163 -27 -11 -210 5 -862 76 l-334 37 -101 -27 c-56 -14 -145 -46 -197 -71 l-95 -45 -427 -15 c-235 -9 -536 -17 -670 -18 l-244 -2 -75 37 c-81 40 -134 89 -274 253 l-76 90 38 7 c21 4 466 24 988 44 523 20 1195 47 1495 59 735 30 682 30 719 0z m-3164 -222 c175 -203 212 -233 335 -271 63 -19 74 -19 470 -6 223 7 508 16 634 20 l229 7 -29 -36 -29 -37 -118 0 c-65 0 -336 -7 -603 -15 -677 -22 -621 -40 -953 313 l-133 142 48 0 49 -1 100 -116z m400 -668 c102 -17 185 -102 185 -190 0 -25 -1 -25 -86 -25 -85 0 -85 0 -95 29 -11 32 -45 51 -89 51 -31 0 -70 -30 -70 -53 0 -27 46 -56 120 -76 199 -55 266 -137 226 -274 -30 -104 -126 -153 -280 -145 -141 8 -231 75 -243 182 l-6 46 92 0 c70 0 91 -3 91 -14 0 -7 9 -25 21 -40 17 -21 29 -26 66 -26 46 0 83 20 83 45 0 34 -42 63 -122 85 -104 28 -147 50 -186 94 -34 39 -49 102 -38 160 15 79 90 141 189 156 52 8 67 7 142 -5z m690 4 c112 -21 196 -78 242 -166 57 -108 59 -103 -54 -103 -98 0 -98 0 -115 29 -51 91 -205 92 -262 2 -84 -130 14 -301 158 -274 45 8 94 41 111 74 15 29 16 29 110 29 112 0 113 -1 65 -98 -36 -71 -82 -115 -160 -151 -48 -23 -68 -26 -160 -26 -94 0 -111 3 -161 28 -66 32 -132 99 -162 165 -17 38 -22 66 -22 147 0 94 2 105 33 167 57 117 141 167 308 187 6 0 37 -4 69 -10z m908 -336 c70 -181 127 -331 127 -335 0 -5 -44 -8 -98 -8 l-98 0 -21 50 -21 50 -114 0 -114 0 -18 -50 -18 -50 -99 0 c-54 0 -99 3 -99 8 0 4 57 154 127 335 l127 327 96 0 97 0 126 -327z m407 82 l0 -245 135 0 135 0 0 -90 0 -90 -230 0 -230 0 0 335 0 335 95 0 95 0 0 -245z m761 229 c66 -20 138 -88 157 -150 29 -97 8 -187 -58 -255 -54 -57 -119 -79 -227 -79 l-73 0 0 -85 0 -85 -95 0 -95 0 0 335 0 335 168 0 c125 0 182 -4 223 -16z m729 -69 l0 -75 -135 0 -135 0 0 -50 0 -50 120 0 120 0 0 -80 0 -80 -120 0 -120 0 0 -50 0 -50 140 0 140 0 0 -80 0 -80 -235 0 -235 0 0 335 0 335 230 0 230 0 0 -75z m360 -170 l0 -245 135 0 135 0 0 -90 0 -90 -230 0 -230 0 0 335 0 335 95 0 95 0 0 -245z"/> <path d="M8957 3693 c-7 -11 -21 -529 -14 -523 6 6 29 522 23 527 -2 3 -6 1 -9 -4z"/> <path d="M9046 3503 c-4 -109 -9 -226 -12 -260 -3 -38 -2 -63 4 -63 6 0 12 91 16 223 4 122 9 239 12 260 3 21 2 37 -4 37 -6 0 -12 -80 -16 -197z"/> <path d="M9159 3699 c-3 -17 -24 -505 -22 -508 2 -2 5 -2 7 0 7 7 28 500 22 506 -3 4 -6 4 -7 2z"/> <path d="M8850 3603 c0 -49 -2 -167 -5 -263 -3 -125 -2 -155 4 -105 13 104 20 455 10 455 -5 0 -9 -39 -9 -87z"/> <path d="M8657 3673 c-7 -11 -20 -519 -14 -513 7 6 29 511 23 517 -2 3 -6 1 -9 -4z"/> <path d="M8746 3483 c-4 -109 -9 -224 -12 -255 -3 -33 -1 -58 4 -58 6 0 12 93 16 218 4 119 9 234 11 255 3 20 1 37 -4 37 -5 0 -12 -89 -15 -197z"/> <path d="M8446 3463 c-4 -115 -9 -232 -12 -260 -3 -31 -1 -53 4 -53 6 0 12 89 16 218 4 119 9 236 12 260 3 23 1 42 -4 42 -6 0 -12 -87 -16 -207z"/> <path d="M8559 3664 c-5 -53 -24 -510 -22 -513 2 -2 5 -2 7 0 7 7 28 510 22 516 -3 4 -6 2 -7 -3z"/> <path d="M8257 3653 c-2 -4 -7 -82 -11 -173 -3 -91 -9 -205 -12 -255 -4 -58 -3 -86 3 -80 9 9 36 505 28 513 -2 2 -5 0 -8 -5z"/> <path d="M8347 3450 c-5 -118 -7 -237 -5 -265 5 -71 20 304 16 400 -2 50 -6 -1 -11 -135z"/> <path d="M8047 3493 c-7 -164 -7 -383 0 -348 7 36 18 505 12 505 -3 0 -9 -71 -12 -157z"/> <path d="M8146 3518 c-12 -277 -14 -388 -6 -388 8 0 25 508 17 516 -3 3 -8 -55 -11 -128z"/> <path d="M7947 3548 c-11 -163 -17 -440 -8 -368 10 78 25 460 19 460 -3 0 -8 -42 -11 -92z"/> <path d="M7559 3629 c-3 -14 -25 -515 -22 -518 2 -2 5 -2 7 0 6 7 27 511 22 517 -3 3 -6 3 -7 1z"/> <path d="M7649 3533 c-1 -54 -4 -171 -8 -261 -3 -89 -3 -162 0 -162 4 0 10 80 13 178 4 97 9 214 12 260 4 56 2 82 -5 82 -7 0 -11 -34 -12 -97z"/> <path d="M7757 3623 c-2 -4 -7 -96 -11 -203 -4 -107 -9 -221 -13 -252 -3 -34 -2 -58 4 -58 9 0 37 509 29 518 -2 2 -6 0 -9 -5z"/> <path d="M7846 3483 c-3 -82 -8 -197 -11 -258 -3 -68 -1 -100 4 -84 4 14 11 113 15 220 4 107 9 211 12 232 3 20 2 37 -4 37 -5 0 -12 -65 -16 -147z"/> <path d="M7446 3437 c-4 -100 -9 -217 -12 -259 -4 -54 -3 -78 5 -78 7 0 11 34 12 98 1 53 4 168 7 255 4 88 4 161 1 163 -4 2 -10 -78 -13 -179z"/> <path d="M7351 3545 c-11 -238 -15 -455 -10 -455 8 0 22 407 17 475 -4 46 -5 44 -7 -20z"/> <path d="M7046 3453 c-4 -82 -9 -200 -12 -263 -4 -76 -3 -112 4 -105 10 10 29 515 19 515 -3 0 -8 -66 -11 -147z"/> <path d="M7146 3528 c-10 -124 -15 -457 -7 -403 9 59 25 475 18 475 -3 0 -8 -33 -11 -72z"/> <path d="M7246 3453 c-15 -349 -16 -377 -7 -352 4 14 11 117 15 230 4 112 10 219 13 237 3 18 1 32 -4 32 -6 0 -13 -64 -17 -147z"/> <path d="M6846 3402 c-4 -103 -9 -222 -12 -264 -4 -54 -3 -78 5 -78 7 0 11 34 12 98 1 53 4 171 8 260 3 90 3 166 0 168 -4 2 -10 -80 -13 -184z"/> <path d="M6946 3373 c-4 -120 -9 -237 -12 -260 -3 -27 -1 -43 5 -43 7 0 11 29 12 73 0 39 4 153 8 252 4 99 5 184 1 188 -4 5 -11 -90 -14 -210z"/> <path d="M6751 3515 c-11 -238 -15 -455 -10 -455 8 0 22 407 17 475 -4 46 -5 44 -7 -20z"/> <path d="M6646 3418 c-3 -84 -9 -200 -11 -258 -3 -65 -2 -97 4 -85 4 11 11 112 15 225 4 113 10 220 13 238 3 18 1 32 -4 32 -6 0 -13 -65 -17 -152z"/> <path d="M6346 3418 c-11 -262 -12 -378 -5 -378 8 0 24 508 16 516 -3 3 -8 -59 -11 -138z"/> <path d="M6457 3503 c-9 -84 -21 -469 -14 -463 7 6 31 509 25 516 -3 2 -8 -21 -11 -53z"/> <path d="M6558 3559 c-3 -10 -25 -504 -22 -508 2 -2 6 -2 8 0 6 6 26 502 21 507 -3 3 -6 3 -7 1z"/> <path d="M6246 3418 c-13 -279 -15 -383 -7 -350 5 18 12 126 15 240 4 114 10 215 12 225 3 9 1 17 -4 17 -5 0 -12 -60 -16 -132z"/> <path d="M6046 3528 c-8 -26 -15 -502 -7 -483 9 22 24 495 16 495 -3 0 -7 -6 -9 -12z"/> <path d="M6146 3353 c-3 -104 -9 -218 -13 -255 -3 -42 -2 -68 4 -68 6 0 13 75 17 188 3 103 9 217 13 255 3 41 2 67 -4 67 -6 0 -13 -75 -17 -187z"/> <path d="M5747 3380 c-11 -253 -13 -370 -6 -370 8 0 24 476 17 505 -3 11 -7 -50 -11 -135z"/> <path d="M5846 3378 c-3 -84 -9 -202 -12 -262 -4 -71 -3 -107 4 -102 10 6 29 502 19 512 -2 3 -8 -64 -11 -148z"/> <path d="M5958 3529 c-3 -10 -25 -504 -22 -508 2 -2 6 -2 8 0 6 6 26 502 21 507 -3 3 -6 3 -7 1z"/> <path d="M5547 3475 c-9 -76 -20 -481 -13 -474 4 4 12 118 17 253 10 239 8 324 -4 221z"/> <path d="M5646 3378 c-14 -309 -16 -383 -7 -350 5 18 12 129 16 245 3 117 9 220 11 230 3 9 1 17 -4 17 -5 0 -12 -64 -16 -142z"/> <path d="M5446 3388 c-13 -281 -16 -402 -7 -383 9 21 27 505 18 505 -3 0 -8 -55 -11 -122z"/> <path d="M5146 3333 c-4 -93 -9 -213 -12 -268 -3 -64 -2 -95 4 -85 5 8 12 105 16 215 4 110 9 224 12 253 4 31 2 52 -3 52 -6 0 -13 -70 -17 -167z"/> <path d="M5246 3388 c-12 -218 -16 -416 -7 -360 10 61 26 472 19 472 -3 0 -8 -51 -12 -112z"/> <path d="M5346 3303 c-4 -109 -9 -224 -12 -255 -4 -35 -2 -58 4 -58 6 0 12 89 16 228 4 125 9 239 12 255 3 15 1 27 -4 27 -6 0 -12 -81 -16 -197z"/> <path d="M5046 3348 c-3 -79 -9 -197 -13 -263 -3 -66 -2 -116 3 -112 10 10 33 499 23 510 -3 5 -9 -56 -13 -135z"/> <path d="M6120 2210 l0 -341 208 3 c199 3 209 4 262 29 70 33 126 89 159 159 22 47 26 69 26 146 0 84 -3 96 -35 160 -25 48 -49 79 -82 104 -87 65 -120 73 -340 78 l-198 4 0 -342z m381 127 c67 -44 87 -132 48 -208 -26 -52 -81 -78 -161 -79 l-58 0 0 155 0 155 69 0 c54 0 75 -5 102 -23z"/> <path d="M6870 2210 l0 -340 105 0 105 0 0 340 0 340 -105 0 -105 0 0 -340z"/> <path d="M7286 2242 c-66 -169 -125 -322 -133 -339 l-13 -33 109 0 109 0 18 45 17 45 113 0 112 0 14 -42 15 -43 112 -3 112 -3 -14 33 c-8 18 -67 171 -133 341 l-119 307 -100 0 -100 0 -119 -308z m278 -109 c7 -22 5 -23 -59 -23 -49 0 -66 3 -63 13 3 6 18 49 34 94 l28 82 27 -72 c14 -39 29 -82 33 -94z"/> <path d="M7930 2210 l0 -340 105 0 105 0 0 95 0 95 30 0 c28 0 33 -7 77 -95 l48 -95 118 0 119 0 -20 33 c-10 17 -38 67 -62 110 l-42 78 36 35 c49 48 66 93 66 178 0 85 -25 144 -80 187 -57 46 -132 59 -327 59 l-173 0 0 -340z m361 141 c11 -13 19 -36 19 -51 0 -15 -8 -38 -19 -51 -16 -19 -30 -24 -90 -27 l-71 -4 0 82 0 82 71 -4 c60 -3 74 -8 90 -27z"/> <path d="M8560 2545 c0 -2 56 -106 125 -229 l125 -224 0 -111 0 -111 100 0 100 0 0 118 0 117 120 214 c66 118 120 218 120 223 0 4 -51 8 -113 8 l-112 0 -59 -117 -58 -117 -61 117 -62 117 -112 0 c-62 0 -113 -2 -113 -5z"/> <path d="M2986 3330 c-392 -19 -597 -33 -612 -41 -32 -17 -47 -64 -31 -98 22 -47 44 -50 257 -40 107 5 385 18 618 29 232 11 432 24 442 30 26 14 40 42 40 79 0 37 -32 61 -87 66 -21 2 -303 -10 -627 -25z m684 -10 c37 -37 14 -95 -43 -105 -18 -3 -232 -14 -477 -25 -834 -37 -758 -35 -780 -15 -20 18 -26 60 -12 81 17 27 63 33 317 44 149 7 383 18 520 25 396 19 451 19 475 -5z"/> <path d="M2641 2212 c-17 -48 -31 -91 -31 -95 0 -4 32 -7 70 -7 39 0 70 3 70 7 0 18 -63 183 -70 183 -4 0 -21 -39 -39 -88z"/> <path d="M3870 2290 l0 -90 59 0 c80 0 116 28 116 90 0 62 -36 90 -116 90 l-59 0 0 -90z"/> </g> </svg>